<svg xmlns="http://www.w3.org/2000/svg" version="1.1" xmlns:xlink="http://www.w3.org/1999/xlink" xmlns:svgjs="http://svgjs.com/svgjs" width="1440" height="560" preserveAspectRatio="none" viewBox="0 0 1440 560">
    <g mask="url(&quot;#SvgjsMask1143&quot;)" fill="none">
        <rect width="1440" height="560" x="0" y="0" fill="url(#SvgjsLinearGradient1144)"></rect>
        <path d="M780.25 428.65a38.23 38.23 0 1 0 73.91 19.58z" stroke="#e73635"></path>
        <path d="M374.38 366.79a11.42 11.42 0 1 0-21.78 6.88z" fill="#e73635"></path>
        <path d="M1161.46 233.64L1207 233.64L1207 243.81L1161.46 243.81z" stroke="#037b0b"></path>
        <path d="M833.95 409.13 a29.56 29.56 0 1 0 59.12 0 a29.56 29.56 0 1 0 -59.12 0z" fill="#e73635"></path>
        <path d="M1168.72 417.41L1202.78 417.41L1202.78 442.06L1168.72 442.06z" stroke="#037b0b"></path>
        <path d="M970.36 375.84 a23.02 23.02 0 1 0 46.04 0 a23.02 23.02 0 1 0 -46.04 0z" stroke="#e73635"></path>
        <path d="M733.27 527 a3.36 3.36 0 1 0 6.72 0 a3.36 3.36 0 1 0 -6.72 0z" stroke="#e73635"></path>
        <path d="M1075.36 278.84L1095.68 278.84L1095.68 299.16L1075.36 299.16z" stroke="#d3b714"></path>
        <path d="M599.31 250.26 a41.55 41.55 0 1 0 83.1 0 a41.55 41.55 0 1 0 -83.1 0z" fill="#e73635"></path>
        <path d="M641.93 313.02L672.28 313.02L672.28 348.12L641.93 348.12z" fill="#d3b714"></path>
        <path d="M58.69 255.88 a34.46 34.46 0 1 0 68.92 0 a34.46 34.46 0 1 0 -68.92 0z" stroke="#e73635"></path>
        <path d="M1138.44 372.75a23.67 23.67 0 1 0-46.66-8z" stroke="#d3b714"></path>
        <path d="M1426.05 434.99a14.07 14.07 0 1 0 11.94-25.48z" stroke="#e73635"></path>
        <path d="M1222.51 486.67a9.64 9.64 0 1 0 9.66-16.68z" stroke="#e73635"></path>
        <path d="M1146.55 341.67L1161.67 341.67L1161.67 356.27L1146.55 356.27z" fill="#037b0b"></path>
        <path d="M309.09 444.38a10.75 10.75 0 1 0 19.76-8.48z" fill="#037b0b"></path>
        <path d="M1359.53 234.33L1368.25 234.33L1368.25 243.05L1359.53 243.05z" stroke="#037b0b"></path>
        <path d="M80.76 102.07L124.05 102.07L124.05 117.54L80.76 117.54z" fill="#d3b714"></path>
        <path d="M1226.58 290.63L1279.92 290.63L1279.92 343.97L1226.58 343.97z" stroke="#d3b714"></path>
        <path d="M387.1 307.08L431.77 307.08L431.77 351.75L387.1 351.75z" stroke="#e73635"></path>
        <path d="M1119.84 22.29L1169.28 22.29L1169.28 34.08L1119.84 34.08z" stroke="#037b0b"></path>
        <path d="M1167.01 156.79L1217.57 156.79L1217.57 178.44L1167.01 178.44z" fill="#d3b714"></path>
        <path d="M1261.72 120.97L1317.51 120.97L1317.51 176.76L1261.72 176.76z" fill="#e73635"></path>
        <path d="M47.4 136.01L52.94 136.01L52.94 141.55L47.4 141.55z" fill="#037b0b"></path>
        <path d="M543.9 261.34a2.21 2.21 0 1 0-4.27 1.15z" stroke="#e73635"></path>
        <path d="M514.12 471.21a37.08 37.08 0 1 0-71.21-20.71z" stroke="#d3b714"></path>
        <path d="M322.63 134.3a0.16 0.16 0 1 0-0.3-0.09z" stroke="#d3b714"></path>
        <path d="M774 148.52L780.37 148.52L780.37 161.93L774 161.93z" stroke="#e73635"></path>
        <path d="M1045.99 226.42L1046.57 226.42L1046.57 244.89L1045.99 244.89z" stroke="#e73635"></path>
        <path d="M960.24 8.54a4.45 4.45 0 1 0-5.52 6.98z" stroke="#e73635"></path>
        <path d="M199.59 60.19L224.47 60.19L224.47 107.04L199.59 107.04z" fill="#d3b714"></path>
        <path d="M692.19 147.22 a11.89 11.89 0 1 0 23.78 0 a11.89 11.89 0 1 0 -23.78 0z" fill="#e73635"></path>
        <path d="M1303.15 259.17L1353.05 259.17L1353.05 309.07L1303.15 309.07z" stroke="#e73635"></path>
    </g>
    <defs>
        <mask id="SvgjsMask1143">
            <rect width="1440" height="560" fill="#ffffff"></rect>
        </mask>
        <linearGradient x1="15.28%" y1="-39.29%" x2="84.72%" y2="139.29%" gradientUnits="userSpaceOnUse" id="SvgjsLinearGradient1144">
            <stop stop-color="#0e2a47" offset="0"></stop>
            <stop stop-color="rgba(0, 69, 158, 0.92)" offset="1"></stop>
        </linearGradient>
    </defs>
</svg>